<?xml version="1.0" encoding="UTF-8" standalone="no"?>
<svg
   xmlns:dc="http://purl.org/dc/elements/1.1/"
   xmlns:cc="http://creativecommons.org/ns#"
   xmlns:rdf="http://www.w3.org/1999/02/22-rdf-syntax-ns#"
   xmlns:svg="http://www.w3.org/2000/svg"
   xmlns="http://www.w3.org/2000/svg"
   xmlns:sodipodi="http://sodipodi.sourceforge.net/DTD/sodipodi-0.dtd"
   xmlns:inkscape="http://www.inkscape.org/namespaces/inkscape"
   width="256px"
   height="256px"
   viewBox="0 0 256 256"
   version="1.1"
   preserveAspectRatio="xMidYMid"
   id="svg10"
   sodipodi:docname="js.svg"
   inkscape:version="0.92.3 (2405546, 2018-03-11)">
  <metadata
     id="metadata16">
    <rdf:RDF>
      <cc:Work
         rdf:about="">
        <dc:format>image/svg+xml</dc:format>
        <dc:type
           rdf:resource="http://purl.org/dc/dcmitype/StillImage" />
        <dc:title></dc:title>
      </cc:Work>
    </rdf:RDF>
  </metadata>
  <defs
     id="defs14" />
  <sodipodi:namedview
     pagecolor="#ffffff"
     bordercolor="#666666"
     borderopacity="1"
     objecttolerance="10"
     gridtolerance="10"
     guidetolerance="10"
     inkscape:pageopacity="0"
     inkscape:pageshadow="2"
     inkscape:window-width="1366"
     inkscape:window-height="705"
     id="namedview12"
     showgrid="false"
     inkscape:zoom="0.921875"
     inkscape:cx="-74.305085"
     inkscape:cy="128"
     inkscape:window-x="-8"
     inkscape:window-y="-8"
     inkscape:window-maximized="1"
     inkscape:current-layer="g8" />
  <g
     id="g8">
    <path
       d="M 0 0 L 0 256 L 256 256 L 256 0 L 0 0 z M 194.82617 116.15234 C 210.12034 116.15234 221.11759 121.4809 229.02148 135.40039 L 210.29102 147.42969 C 206.16657 140.04104 201.69957 137.11914 194.82617 137.11914 C 187.78048 137.11914 183.3125 141.58801 183.3125 147.42969 C 183.3125 154.64726 187.78036 157.56889 198.08984 162.03711 L 204.10352 164.61328 C 224.55304 173.37783 236.06641 182.31303 236.06641 202.41797 C 236.06641 224.07151 219.05588 235.92773 196.20117 235.92773 C 173.86172 235.92773 159.42533 225.27341 152.38086 211.35352 L 171.96875 200.01367 C 177.12532 208.43485 183.82714 214.61914 195.68359 214.61914 C 205.65175 214.61914 212.00977 209.63552 212.00977 202.76172 C 212.00977 194.51324 205.47872 191.5912 194.48047 186.78125 L 188.46875 184.20312 C 171.11154 176.81529 159.59766 167.53581 159.59766 147.94531 C 159.59766 129.90178 173.34493 116.15234 194.82617 116.15234 z M 115.25586 117.5293 L 139.31445 117.5293 L 139.31445 199.66797 C 139.31445 224.5853 124.7078 235.92578 103.39844 235.92578 C 84.154594 235.92578 72.983453 225.95892 67.3125 213.93164 L 86.902344 202.07617 C 90.681798 208.77728 94.120328 214.44727 102.36719 214.44727 C 110.2723 214.44727 115.25586 211.35411 115.25586 199.32617 L 115.25586 117.5293 z "
       id="path2"
       style="fill:#ffcc00" />
  </g>
</svg>
