<?xml version="1.0" encoding="UTF-8" standalone="no"?>
<svg
   xmlns:dc="http://purl.org/dc/elements/1.1/"
   xmlns:cc="http://creativecommons.org/ns#"
   xmlns:rdf="http://www.w3.org/1999/02/22-rdf-syntax-ns#"
   xmlns:svg="http://www.w3.org/2000/svg"
   xmlns="http://www.w3.org/2000/svg"
   xmlns:sodipodi="http://sodipodi.sourceforge.net/DTD/sodipodi-0.dtd"
   xmlns:inkscape="http://www.inkscape.org/namespaces/inkscape"
   width="256"
   height="239"
   viewBox="0 0 256 239"
   version="1.1"
   preserveAspectRatio="xMidYMid"
   id="svg6"
   sodipodi:docname="sass.svg"
   inkscape:version="0.92.3 (2405546, 2018-03-11)">
  <metadata
     id="metadata12">
    <rdf:RDF>
      <cc:Work
         rdf:about="">
        <dc:format>image/svg+xml</dc:format>
        <dc:type
           rdf:resource="http://purl.org/dc/dcmitype/StillImage" />
        <dc:title></dc:title>
      </cc:Work>
    </rdf:RDF>
  </metadata>
  <defs
     id="defs10" />
  <sodipodi:namedview
     pagecolor="#ffffff"
     bordercolor="#666666"
     borderopacity="1"
     objecttolerance="10"
     gridtolerance="10"
     guidetolerance="10"
     inkscape:pageopacity="0"
     inkscape:pageshadow="2"
     inkscape:window-width="1366"
     inkscape:window-height="705"
     id="namedview8"
     showgrid="false"
     inkscape:zoom="1.1210938"
     inkscape:cx="128"
     inkscape:cy="96"
     inkscape:window-x="-8"
     inkscape:window-y="-8"
     inkscape:window-maximized="1"
     inkscape:current-layer="svg6" />
  <g
     id="g4"
     transform="matrix(1.014174,0,0,1.191019,-0.91106513,45.129305)"
     style="fill:#cd6799">
    <path
       d="m 218.10095,74.565173 c -8.78191,0.0466 -16.41434,2.19162 -22.80536,5.36248 -2.3449,-4.70966 -4.6898,-8.90638 -5.10362,-11.98397 -0.45978,-3.59053 -1.01152,-5.782152 -0.45978,-10.072134 0.55174,-4.289981 3.03459,-10.398542 2.98861,-10.864845 -0.046,-0.466302 -0.55175,-2.657923 -5.60938,-2.704554 -5.05765,-0.04663 -9.42561,0.979235 -9.93137,2.331512 -0.50577,1.352277 -1.47131,4.429873 -2.11501,7.600729 -0.8736,4.663024 -10.11529,21.310022 -15.40281,30.029872 -1.70121,-3.40401 -3.17252,-6.38834 -3.49437,-8.76648 -0.45978,-3.59053 -1.01153,-5.78215 -0.45978,-10.07214 0.55174,-4.289977 3.03457,-10.398538 2.9886,-10.86484 -0.0459,-0.466303 -0.55174,-2.657924 -5.60939,-2.704554 -5.05763,-0.04663 -9.4256,0.979235 -9.93136,2.331512 -0.50576,1.352277 -1.0575,4.523133 -2.11501,7.600728 -1.0575,3.077594 -13.33378,30.869214 -16.55227,38.050274 -1.65523,3.683787 -3.08057,6.621487 -4.09209,8.626587 v 0 c 0,0 -0.0459,0.13989 -0.18392,0.37304 -0.87359,1.72532 -1.37935,2.65793 -1.37935,2.65793 0,0 0,0 0,0.0466 -0.68969,1.25901 -1.42534,2.42477 -1.79317,2.42477 -0.27587,0 -0.78164,-3.35738 0.092,-7.92714 1.83914,-9.652457 6.2071,-24.667387 6.16112,-25.180327 0,-0.27978 0.82762,-2.89107 -2.85066,-4.24335 -3.58633,-1.35227 -4.87373,0.88598 -5.19558,0.88598 -0.32185,0 -0.55174,0.79271 -0.55174,0.79271 0,0 4.00013,-16.880146 -7.63244,-16.880146 -7.264609,0 -17.287935,8.067036 -22.253617,15.341346 -3.126541,1.72532 -9.793428,5.40911 -16.920102,9.37268 -2.712734,1.5388 -5.517424,3.0776 -8.138201,4.52313 -0.183914,-0.18652 -0.367829,-0.41967 -0.551743,-0.60619 C 45.129686,74.798323 19.105833,64.026741 20.209318,43.556067 20.623125,36.095229 23.151945,16.510529 70.187989,-7.270891 108.90193,-26.62244 139.70754,-21.259962 145.04105,-9.369252 152.67349,7.604154 128.53476,39.126194 88.533425,43.695957 73.268551,45.421276 65.268285,39.452606 63.245229,37.214354 c -2.115013,-2.331511 -2.436863,-2.471402 -3.218498,-2.0051 -1.287398,0.699454 -0.459785,2.797815 0,4.010201 1.195443,3.170856 6.115146,8.766484 14.437262,11.517668 7.356566,2.424772 25.242222,3.777049 46.898107,-4.709654 24.23069,-9.512568 43.17385,-35.951912 37.61045,-58.101275 C 153.40914,-34.54958 116.62632,-41.963787 81.820559,-29.420254 61.130216,-21.959416 38.692691,-10.208596 22.554223,5.086121 3.3811733,23.271914 0.34658973,39.079564 1.5880102,45.701058 6.0479284,69.202693 38.003012,84.497413 50.785046,95.828563 c -0.643699,0.37304 -1.241421,0.69945 -1.747185,0.97923 -6.391017,3.217487 -30.759642,16.134067 -36.828809,29.796727 -6.8967802,15.48123 1.103485,26.57923 6.391017,28.0714 16.414338,4.61639 33.288462,-3.68379 42.346233,-17.39308 9.057773,-13.70929 7.954287,-31.52204 3.770241,-39.682327 -0.04598,-0.0933 -0.09196,-0.18652 -0.183914,-0.27978 1.655227,-0.97924 3.356433,-2.0051 5.01166,-2.98434 3.264476,-1.95847 6.482974,-3.77705 9.241686,-5.26921 -1.56327,4.33661 -2.712734,9.51256 -3.264476,16.973397 -0.689678,8.76649 2.850669,20.14426 7.494502,24.62077 2.069034,1.95847 4.505896,2.0051 6.069167,2.0051 5.425467,0 7.86233,-4.56977 10.575069,-9.97887 3.310453,-6.6215 6.299053,-14.31549 6.299053,-14.31549 0,0 -3.72426,20.79709 6.39102,20.79709 3.67828,0 7.40254,-4.84955 9.05777,-7.32095 v 0.0466 c 0,0 0.092,-0.13989 0.27587,-0.4663 0.36783,-0.60619 0.59773,-0.97924 0.59773,-0.97924 v -0.0933 c 1.47131,-2.61129 4.78176,-8.53333 9.70146,-18.37231 6.34505,-12.683417 12.46019,-28.537697 12.46019,-28.537697 0,0 0.55174,3.8703 2.43686,10.30528 1.10349,3.77705 3.40242,7.92714 5.24156,11.93734 -1.47132,2.09836 -2.39088,3.26411 -2.39088,3.26411 0,0 0,0 0.0459,0.0466 -1.19545,1.585427 -2.48285,3.310747 -3.90818,4.989437 -5.01167,6.06193 -10.98887,13.00984 -11.81648,15.01494 -0.96556,2.37814 -0.73567,4.10346 1.10348,5.50236 1.33338,1.02587 3.72426,1.16576 6.16112,1.02587 4.5059,-0.32641 7.67841,-1.44554 9.24169,-2.14499 2.43686,-0.88598 5.28753,-2.23825 7.95428,-4.24335 4.91971,-3.68379 7.90831,-8.95301 7.63244,-15.90091 -0.13793,-3.823677 -1.37936,-7.647357 -2.89664,-11.237887 0.45978,-0.65282 0.87359,-1.30565 1.33337,-1.95847 7.77037,-11.51767 13.79356,-24.15446 13.79356,-24.15446 0,0 0.55175,3.87031 2.43687,10.30528 0.91956,3.26412 2.80468,6.80801 4.45991,10.25865 -7.31059,6.0153 -11.81648,13.00984 -13.42573,17.579597 -2.89665,8.4867 -0.6437,12.31038 3.63231,13.19636 1.93109,0.41967 4.6898,-0.51294 6.71286,-1.39891 2.5748,-0.83934 5.60938,-2.28488 8.50603,-4.42987 4.9197,-3.68379 9.6555,-8.81312 9.37963,-15.761017 -0.13795,-3.17086 -0.96556,-6.29508 -2.11503,-9.32605 6.20712,-2.61129 14.20738,-4.05683 24.41461,-2.84444 21.88578,2.61129 26.20777,16.46047 25.38015,22.289247 -0.8276,5.82878 -5.42546,8.99963 -6.94275,9.97887 -1.51729,0.97923 -2.02306,1.30565 -1.88512,2.0051 0.18391,1.02587 0.91957,0.97923 2.20697,0.79271 1.79316,-0.32641 11.49463,-4.70965 11.90844,-15.4346 C 253.73428,89.393493 240.8603,74.425183 218.10092,74.565073 Z M 49.267754,132.2934 c -7.264609,8.0204 -17.379887,11.05137 -21.747849,8.48671 -4.68981,-2.75119 -2.850669,-14.59527 6.069167,-23.08197 5.425468,-5.17596 12.414205,-9.97887 17.058038,-12.91658 1.057507,-0.65282 2.620777,-1.58542 4.505896,-2.75118 0.32185,-0.18652 0.505765,-0.27978 0.505765,-0.27978 v 0 c 0.367828,-0.23315 0.735656,-0.4663 1.103485,-0.69945 3.264475,12.12386 0.137935,22.80218 -7.494502,31.24225 z M 102.14307,95.828563 c -2.528812,6.248447 -7.816349,22.242617 -11.034846,21.356647 -2.758713,-0.74609 -4.459918,-12.86995 -0.551743,-24.853917 1.977077,-6.0153 6.161124,-13.19636 8.597984,-15.99417 3.954165,-4.4765 8.322125,-5.96867 9.379625,-4.15009 1.33338,2.37814 -4.82774,19.72459 -6.39102,23.64153 z m 43.63364,21.170127 c -1.05751,0.55956 -2.06904,0.9326 -2.52882,0.65282 -0.32185,-0.18652 0.45978,-0.93261 0.45978,-0.93261 0,0 5.47145,-5.96867 7.63244,-8.67322 1.24142,-1.58543 2.71274,-3.45064 4.27601,-5.549 v 0.6062 c 0,7.13442 -6.80483,11.93734 -9.83941,13.89581 z m 33.65629,-7.78725 c -0.78164,-0.55957 -0.6437,-2.42478 1.97708,-8.25356 1.01152,-2.284877 3.40241,-6.108557 7.4945,-9.792337 0.45978,1.49216 0.78163,2.9377 0.73565,4.28998 -0.046,8.999627 -6.39101,12.357007 -10.20723,13.755917 z"
       id="path2"
       inkscape:connector-curvature="0"
       style="stroke-width:0.99298745" />
  </g>
</svg>
